{"title":"Father of the Bride Duology 2DVDrip English Klam","uid":10871078,"size":3915608778,"categoryP":"video","categoryS":"movies","magnet":"?xt=urn:btih:f7f56fffa045b308a07d5dc8a3a630c26a434421&amp;dn=Father+of+the+Bride+Duology+2DVDrip+English+Klam&amp;tr=udp%3A%2F%2Ftracker.openbittorrent.com%3A80&amp;tr=udp%3A%2F%2Fopen.demonii.com%3A1337&amp;tr=udp%3A%2F%2Ftracker.coppersurfer.tk%3A6969&amp;tr=udp%3A%2F%2Fexodus.desync.com%3A6969","seeders":0,"leechers":2,"uploader":"Klambake","files":-1,"time":1408972311,"description":"With: Steve Martin, Kimberly Williams en Diane Keaton\n\nAls Annie haar ouders vertelt dat ze gaat trouwen, slaat dit bij vader George in als een bom. Hij kan maar niet accepteren dat hij zijn kleine meid gaat verliezen aan een andere man. Annie en haar moeder gaan dolblij beginnen met de voorbereidingen voor deze heugelijke dag. Maar George is allesbehalve blij als de kosten behoorlijk hoog uitvallen en de rest ook niet gesmeerd loopt.\n\nGeorge Banks (Steve Martin) is nog maar net bekomen van zijn dochters trouwdag, als de lieve meid hem komt vertellen dat ze zwanger is. Hij ziet het niet zitten om nu al grootvader te worden. De schrik wordt echter groter als zijn vrouw Nina Banks (Diane Keaton) hem vertelt dat ze ook zwanger is. De ramp is compleet als ze Franck Eggelhoffer (Martin Short) weer inhuren om een dubbel welkomstfeest voor de baby's te organiseren.\n\nWith his oldest daughter's wedding approaching, a father finds himself reluctant to let go.\n\nIn this sequel, George Banks deals not only with the pregnancy of his daughter, but also with the unexpected pregnancy of his wife.\n &lt;a href=&quot;\nhttp://www.imdb.com/title/tt0101862&quot; rel=&quot;nofollow&quot; target=&quot;_NEW&quot;&gt;\nhttp://www.imdb.com/title/tt0101862&lt;/a&gt;   \n &lt;a href=&quot;\nhttp://www.imdb.com/title/tt0113041&quot; rel=&quot;nofollow&quot; target=&quot;_NEW&quot;&gt;\nhttp://www.imdb.com/title/tt0113041&lt;/a&gt;\n\n--------------------- Dutch Friends 4ever ---------------------\n---------------------------------------------------------------\n- Bezoek ook eens mijn vrienden op: &lt;a href=&quot; http://www.Film-Test.nl&quot; rel=&quot;nofollow&quot; target=&quot;_NEW&quot;&gt; http://www.Film-Test.nl&lt;/a&gt; --\n----- voor mijn Nederlandse Sync. ondertitels ---- en meer ----\n------- http://www.Film-Test.nl ---- Over Films en meer -------\n---------------------------------------------------------------\n &lt;a href=&quot;\nhttp://i.imgur.com/hChNYo7.jpg&quot; rel=&quot;nofollow&quot; target=&quot;_NEW&quot;&gt;\nhttp://i.imgur.com/hChNYo7.jpg&lt;/a&gt; &lt;a href=&quot;\nhttp://i.imgur.com/vbR40ee.jpg&quot; rel=&quot;nofollow&quot; target=&quot;_NEW&quot;&gt;\nhttp://i.imgur.com/vbR40ee.jpg&lt;/a&gt; &lt;a href=&quot;\nhttp://i.imgur.com/QTF10OY.jpg&quot; rel=&quot;nofollow&quot; target=&quot;_NEW&quot;&gt;\nhttp://i.imgur.com/QTF10OY.jpg&lt;/a&gt; &lt;a href=&quot;\nhttp://i.imgur.com/mJBSnrq.jpg&quot; rel=&quot;nofollow&quot; target=&quot;_NEW&quot;&gt;\nhttp://i.imgur.com/mJBSnrq.jpg&lt;/a&gt;\n\nGeneral:\n\nComplete name                            : Father of the BrideFather of the Bride.avi\nFormat                                   : AVI\nFormat/Info                              : Audio Video Interleave\nFile size                                : 1.72 GiB\nDuration                                 : 1h 40mn\nOverall bit rate                         : 2 437 Kbps\n\nVideo:\n\nFormat                                   : MPEG-4 Visual\nFormat profile                           : Simple@L3\nFormat settings, BVOP                    : No\nFormat settings, QPel                    : No\nFormat settings, GMC                     : No warppoints\nFormat settings, Matrix                  : Default (H.263)\nCodec ID                                 : XVID\nCodec ID/Hint                            : XviD\nDuration                                 : 1h 40mn\nBit rate                                 : 2 042 Kbps\nWidth                                    : 652 pixels\nHeight                                   : 352 pixels\nDisplay aspect ratio                     : 1.85:1\nFrame rate                               : 25.000 fps\nColor space                              : YUV\nChroma subsampling                       : 4:2:0\nBit depth                                : 8 bits\nScan type                                : Progressive\nCompression mode                         : Lossy\nBits/(Pixel*Frame)                       : 0.356\nStream size                              : 1.44 GiB (84%)\nWriting library                          : XviD 1.1.2 (UTC 2006-11-01)\n\nAudio:\n\nFormat                                   : AC-3\nFormat/Info                              : Audio Coding 3\nMode extension                           : CM (complete main)\nFormat settings, Endianness              : Big\nCodec ID                                 : 2000\nDuration                                 : 1h 40mn\nSource duration                          : 1h 40mn\nBit rate mode                            : Constant\nBit rate                                 : 384 Kbps\nChannel(s)                               : 6 channels\nChannel positions                        : Front: L C R, Side: L R, LFE\nSampling rate                            : 48.0 KHz\nBit depth                                : 16 bits\nCompression mode                         : Lossy\nStream size                              : 277 MiB (16%)\nAlignment                                : Aligned on interleaves\nInterleave, duration                     : 32 ms (0.80 video frame)\nInterleave, preload duration             : 512 ms\n\n","torrent":{"xt":"urn:btih:f7f56fffa045b308a07d5dc8a3a630c26a434421","amp;dn":"Father+of+the+Bride+Duology+2DVDrip+English+Klam","amp;tr":["udp%3A%2F%2Ftracker.openbittorrent.com%3A80","udp%3A%2F%2Fopen.demonii.com%3A1337","udp%3A%2F%2Ftracker.coppersurfer.tk%3A6969","udp%3A%2F%2Fexodus.desync.com%3A6969"],"infoHash":"f7f56fffa045b308a07d5dc8a3a630c26a434421","infoHashBuffer":{"type":"Buffer","data":[247,245,111,255,160,69,179,8,160,125,93,200,163,166,48,194,106,67,68,33]},"announce":[],"urlList":[]}}